<svg width="122" height="98" viewBox="0 0 122 98" fill="none" xmlns="http://www.w3.org/2000/svg">
<g clip-path="url(#clip0_223_35)">
<path d="M97.4795 65.6328C104.646 67.9601 111.736 70.226 118.795 72.5993C119.76 72.9219 120.772 73.5902 121.367 74.389C122.309 75.6563 122.178 77.1387 121.143 78.4138C119.915 79.9192 118.339 79.9346 116.656 79.3585C112.045 77.7916 107.45 76.1556 102.808 74.6809C93.8188 71.8159 85.0301 72.1462 76.3108 76.025C70.8584 78.4522 65.1279 80.1419 58.9881 79.6657C53.7211 79.2586 48.8788 77.3461 44.0519 75.4643C38.6535 73.3674 33.1161 71.7621 27.3625 73.0141C21.1996 74.3506 15.1602 76.2631 9.0745 77.9759C7.8002 78.3369 6.5877 78.9053 5.32885 79.3508C3.00423 80.1803 1.03487 79.4276 0.278016 77.446C-0.494282 75.4336 0.455645 73.5902 2.79571 72.7069C9.89313 70.0339 17.0137 67.4148 24.5359 66.1705C21.2614 42.982 39.5571 23.849 61.3745 24.0564C81.3925 24.2484 100.283 41.346 97.4795 65.6328ZM31.6642 65.579C37.7268 65.4946 42.8471 67.5223 48.0524 69.3657C51.4969 70.587 55.0185 71.7391 58.5943 72.415C63.5138 73.3367 68.0858 71.524 72.6269 69.8726C77.9712 67.9217 83.2306 65.6482 89.0846 65.556C89.5017 65.5483 90.2585 64.6189 90.2585 64.1197C90.2585 61.1702 90.3821 58.167 89.9187 55.279C87.2929 39.0724 70.5186 28.0811 54.4934 31.9216C42.2602 34.8556 33.3942 44.3799 31.7183 56.7077C31.3321 59.5803 31.6642 62.5605 31.6642 65.579Z" fill="#6B79FF"/>
<path d="M41.9204 85.58C45.5424 86.6246 49.319 87.3235 52.7557 88.7982C58.3703 91.21 63.7378 91.379 69.2366 88.7061C77.1604 84.858 85.1227 85.9256 93.0697 88.6677C95.2862 89.4357 97.5027 90.1885 99.6806 91.041C101.804 91.8706 102.7 93.8753 101.92 95.7878C101.202 97.5467 99.1709 98.3455 97.132 97.685C93.34 96.4637 89.5635 95.2041 85.7483 94.0596C81.2458 92.7078 76.9209 93.3299 72.5574 94.989C69.2752 96.241 65.8307 97.2472 62.3631 97.8156C57.961 98.5376 53.8138 96.9169 49.875 95.181C44.0442 92.6079 38.306 92.9229 32.4829 95.012C29.9806 95.9107 27.4707 96.7786 24.953 97.6312C22.7056 98.3916 20.7903 97.6312 20.0566 95.7187C19.2843 93.7217 20.2574 91.763 22.5434 90.9796C27.9804 89.1055 33.2861 86.7705 39.1246 86.302C40.0051 86.2328 40.8932 86.133 41.7736 86.0408C41.82 85.8872 41.8663 85.7336 41.9204 85.58Z" fill="#6B79FF"/>
<path d="M7.27504 64.1197C6.07025 64.1197 4.85775 64.1657 3.65296 64.112C1.56003 64.0121 0.0926643 62.6296 -1.15368e-05 60.7247C-0.0926874 58.8967 1.33606 57.1378 3.34404 57.0149C5.93896 56.8613 8.55706 56.8613 11.152 57.0149C13.2217 57.1378 14.5269 58.7584 14.4729 60.7017C14.4188 62.668 13.0441 64.0044 10.8971 64.112C9.69233 64.1657 8.48755 64.1197 7.27504 64.1197Z" fill="#6B79FF"/>
<path d="M114.601 64.1274C113.458 64.1274 112.315 64.1658 111.172 64.1197C108.948 64.0275 107.496 62.6373 107.473 60.6172C107.45 58.7047 108.825 57.1071 110.894 56.9995C113.427 56.869 115.976 56.869 118.509 56.9995C120.548 57.1071 121.977 58.7585 121.946 60.6172C121.915 62.6066 120.432 64.0275 118.223 64.112C117.011 64.1658 115.806 64.1274 114.601 64.1274Z" fill="#6B79FF"/>
<path d="M86.1808 21.322C83.4314 20.9379 81.6474 18.4877 82.7286 16.268C83.9334 13.7871 85.3467 11.3983 86.8373 9.07869C87.8799 7.45803 89.9574 7.14312 91.5251 8.10322C93.0774 9.04797 93.7339 11.0143 92.8458 12.7194C91.6564 15.0006 90.3976 17.2665 88.9302 19.3787C88.3355 20.2467 87.1153 20.6845 86.1808 21.322Z" fill="#6B79FF"/>
<path d="M35.6957 21.3604C34.7457 20.6537 33.541 20.1238 32.8922 19.2021C31.5253 17.2511 30.4131 15.1235 29.2779 13.0266C28.243 11.1295 28.7759 9.10173 30.4595 8.08786C32.174 7.0663 34.2206 7.5502 35.3713 9.40896C36.7228 11.598 38.0589 13.8178 39.1865 16.122C40.314 18.4416 38.5763 20.9533 35.6957 21.3604Z" fill="#6B79FF"/>
<path d="M17.2763 39.2031C16.9751 39.0955 16.2337 38.9342 15.5927 38.5886C13.6542 37.5363 11.7389 36.438 9.83908 35.3166C7.7616 34.0799 7.13604 32.0291 8.2327 30.2011C9.29075 28.4345 11.291 27.9813 13.3608 29.1258C15.4614 30.2856 17.5698 31.4377 19.5778 32.7358C20.937 33.6191 21.6398 34.9556 21.0915 36.6453C20.5586 38.2353 19.4851 39.1647 17.2763 39.2031Z" fill="#6B79FF"/>
<path d="M104.291 39.1876C102.554 39.1876 101.457 38.2889 100.901 36.7067C100.345 35.1167 100.916 33.7342 102.198 32.897C104.523 31.3915 106.948 30.032 109.412 28.7647C110.871 28.012 112.277 28.5266 113.343 29.7017C114.431 30.9076 114.516 32.3209 113.806 33.7419C113.134 35.086 105.874 39.1876 104.291 39.1876Z" fill="#6B79FF"/>
<path d="M64.487 7.08938C64.487 8.34904 64.5256 9.61638 64.4792 10.876C64.4097 12.8654 62.8651 14.4169 61.0039 14.44C59.1736 14.463 57.5363 12.8807 57.4899 10.9221C57.4359 8.39513 57.4359 5.86813 57.4899 3.34113C57.5363 1.36715 58.9264 0.0460392 60.8649 -4.58871e-05C62.9038 -0.046131 64.3788 1.26729 64.4792 3.29504C64.5333 4.5547 64.487 5.82204 64.487 7.08938Z" fill="#6B79FF"/>
</g>
<defs>
<clipPath id="clip0_223_35">
<rect width="122" height="98" fill="white"/>
</clipPath>
</defs>
</svg>
