<svg width="91" height="92" viewBox="0 0 91 92" fill="none" xmlns="http://www.w3.org/2000/svg">
<path d="M85.757 85.6604C84.8002 85.7026 84.2627 85.3875 83.7589 84.5576C72.6201 66.2984 61.4673 48.0447 50.2468 29.836C49.3913 28.4492 49.2675 27.4843 50.244 26.151C51.3444 24.6432 52.2506 22.9891 53.2412 21.3323C53.4241 21.0285 53.3284 20.6346 53.0245 20.449C51.8425 19.7232 50.7534 19.0537 49.6587 18.3814C49.3575 18.1957 48.9607 18.2886 48.7722 18.5896C48.0348 19.7542 47.3341 20.8625 46.6024 22.0215C46.3491 22.4237 45.7581 22.4209 45.5048 22.0186C44.7534 20.8259 44.0555 19.7148 43.3463 18.5868C43.1578 18.2858 42.7581 18.1957 42.457 18.3842C41.3144 19.0987 40.2253 19.7767 39.0968 20.4799C38.7957 20.6684 38.7028 21.065 38.8885 21.3688C40.0846 23.3211 41.2019 25.1917 42.3923 27.0117C42.8735 27.7459 42.82 28.272 42.3726 29.0034C30.9861 47.5496 19.6278 66.1127 8.28639 84.6899C7.83611 85.4269 7.34362 85.6913 6.49371 85.6604C4.90648 85.6013 3.31642 85.6294 1.7517 85.6379C1.39711 85.6407 1.10724 85.9276 1.10724 86.282V90.3412C1.10724 90.6844 1.38585 90.9629 1.72919 90.9657C9.37269 90.9685 17.0162 90.9517 24.6569 90.9967C25.5631 91.0023 25.8557 90.4987 26.2188 89.8883C31.155 81.6068 36.0996 73.3309 41.0471 65.055C42.502 62.6217 43.9626 60.1913 45.502 57.6202C45.7525 57.2039 46.3519 57.2011 46.608 57.6118C46.6502 57.6793 46.6896 57.744 46.729 57.8087C52.9542 68.2281 59.1962 78.6363 65.3734 89.0838C66.0854 90.2906 67.3884 91.0192 68.7899 91.0051C75.7017 90.9291 82.6135 90.9713 89.5253 90.9713C89.8011 90.9713 90.0797 90.9713 90.3555 90.9713C90.7129 90.9713 91 90.6816 91 90.3272V86.2849C91 85.9304 90.7129 85.6407 90.3555 85.6407C88.788 85.6294 87.2711 85.5928 85.757 85.6604Z" fill="#6B79FF"/>
<path d="M15.9888 32.5365C24.1417 32.9866 28.8894 28.3451 32.5366 22.0411C30.8931 22.0411 29.303 22.0636 27.7158 22.0355C23.9194 21.9736 20.8096 19.591 19.9457 16.1113C19.0395 12.4572 20.6014 9.01404 24.0235 7.14057C25.4532 6.35573 26.8912 5.58497 28.4757 4.727C26.9363 3.98999 25.5517 3.31767 24.1614 2.66224C21.0798 1.21072 17.8941 0.695941 14.4691 1.16572C5.71964 2.36125 -0.66308 11.5486 1.38007 20.1873C3.0067 27.0624 8.96447 32.1511 15.9888 32.5365Z" fill="#6B79FF"/>
<path d="M34.0142 90.9038H58.1042C59.0976 90.9038 59.7083 89.8208 59.1961 88.9713C55.1633 82.2566 51.1896 75.6404 47.1483 68.9117C46.653 68.0846 45.4542 68.0846 44.9589 68.9117C40.8951 75.6826 36.9326 82.2876 32.9195 88.9741C32.4101 89.8236 33.0236 90.9038 34.0142 90.9038Z" fill="#6B79FF"/>
</svg>
