<svg width="93" height="92" viewBox="0 0 93 92" fill="none" xmlns="http://www.w3.org/2000/svg">
<g clip-path="url(#clip0_223_54)">
<path d="M92.1777 92H58.2324C57.785 92 57.4247 91.6404 57.4247 91.2002C57.4247 90.8982 57.4247 90.6047 57.4247 90.3113C57.4247 79.3791 57.4363 68.4469 57.4189 57.5148C57.4102 52.0458 54.5192 47.998 49.6234 46.4848C43.1324 44.4796 36.1795 49.1401 35.6856 55.8462C35.5955 57.0861 35.6159 58.3376 35.6159 59.5833C35.61 69.7962 35.6129 80.0091 35.6129 90.2221V91.1801C35.6129 91.6232 35.2498 91.9799 34.8052 91.9799H0.842544C0.418338 91.9799 0.0667693 91.6519 0.0348086 91.2319C0.0231865 91.0622 0.0144699 90.8924 0.0144699 90.7227C0.00865887 74.0885 -0.0174908 57.4515 0.020281 40.8144C0.0435252 30.6734 6.22067 22.4973 16.0239 19.6981C17.898 19.163 19.926 19.1285 21.8902 18.9386C22.6223 18.8667 23.3662 18.8954 24.1419 18.9127C24.5371 18.9213 24.8828 18.648 24.9526 18.2625C26.016 12.4167 28.846 7.69283 33.6488 4.17727C37.7195 1.19681 42.3334 -0.17834 47.3861 0.0172881C57.0877 0.39416 66.0105 7.22101 68.0735 18.2568C68.1461 18.6394 68.4744 18.9184 68.8667 18.9213C69.6163 18.9242 70.3804 18.9299 71.1446 18.9184C80.6805 18.7602 89.2111 25.1153 91.9075 33.9185C92.5583 36.0417 92.9302 38.3317 92.9418 40.5469C93.0261 57.3767 92.9883 74.2036 92.9854 91.0334C92.9854 91.0967 92.9854 91.16 92.9825 91.2261C92.9709 91.6577 92.6135 92 92.1777 92ZM27.277 80.3688V52.3738C27.277 51.9307 26.9138 51.574 26.4693 51.574H9.03612C8.58867 51.574 8.22838 51.9336 8.22838 52.3738V80.3688C8.22838 80.8118 8.59158 81.1685 9.03612 81.1685H26.4693C26.9138 81.1685 27.277 80.8089 27.277 80.3688ZM84.7512 80.3659V52.3766C84.7512 51.9336 84.388 51.5769 83.9434 51.5769H66.5277C66.0803 51.5769 65.72 51.9365 65.72 52.3766V80.3659C65.72 80.8089 66.0832 81.1657 66.5277 81.1657H83.9434C84.388 81.1657 84.7512 80.8061 84.7512 80.3659ZM56.6112 37.8714C57.047 37.8714 57.416 37.529 57.4189 37.0946C57.4189 37.0917 57.4189 37.0889 57.4189 37.0889C57.4218 31.9623 57.4683 26.8356 57.3869 21.709C57.3666 20.3972 57.1138 19.0249 56.6577 17.7907C54.8591 12.9316 49.9343 10.1382 44.7624 10.9092C39.8143 11.6457 35.8803 15.915 35.674 21.0042C35.5258 24.6866 35.6217 28.3805 35.61 32.0716C35.6071 33.72 35.6071 35.3714 35.61 37.0716C35.61 37.5146 35.9732 37.8743 36.4178 37.8743H56.6112V37.8714ZM20.4955 39.6464V36.0187C20.4955 35.5756 20.1323 35.2189 19.6878 35.2189H16.0152C15.5677 35.2189 15.2075 35.5785 15.2075 36.0187V39.6464C15.2075 40.0895 15.5706 40.4462 16.0152 40.4462H19.6878C20.1323 40.4462 20.4955 40.0895 20.4955 39.6464ZM73.3092 40.4232H76.9615C77.4089 40.4232 77.7692 40.0636 77.7692 39.6234V36.0503C77.7692 35.6073 77.406 35.2505 76.9615 35.2505H73.3092C72.8618 35.2505 72.5015 35.6101 72.5015 36.0503V39.6234C72.4986 40.0636 72.8618 40.4232 73.3092 40.4232Z" fill="#6B79FF"/>
<path d="M52.0031 67.7565C48.2927 67.7565 44.7392 67.7565 41.1102 67.7565C41.1102 63.8324 40.8778 59.9572 41.1829 56.1252C41.4328 52.998 43.9548 51.2863 47.0782 51.4877C49.7164 51.6574 51.881 53.8812 51.974 56.8156C52.0902 60.4003 52.0031 63.9935 52.0031 67.7565Z" fill="#6B79FF"/>
<path d="M51.9479 84.0656C51.9479 86.7497 51.9479 89.3188 51.9479 91.9655C48.3218 91.9655 44.7625 91.9655 41.0986 91.9655C41.0986 89.3533 41.0986 86.7497 41.0986 84.0656C44.6957 84.0656 48.2549 84.0656 51.9479 84.0656Z" fill="#6B79FF"/>
<path d="M51.8926 78.4786C48.249 78.4786 44.7275 78.4786 41.1014 78.4786C41.1014 76.741 41.1014 75.0436 41.1014 73.2312C44.681 73.2312 48.2694 73.2312 51.8926 73.2312C51.8926 75.0177 51.8926 76.7468 51.8926 78.4786Z" fill="#6B79FF"/>
<path d="M13.7664 56.899C16.4859 56.899 19.2113 56.899 21.9774 56.899C21.9774 63.2512 21.9774 69.4969 21.9774 75.8347C19.2287 75.8347 16.5498 75.8347 13.7664 75.8347C13.7664 69.5516 13.7664 63.2627 13.7664 56.899Z" fill="#6B79FF"/>
<path d="M71.0923 56.8933C73.8031 56.8933 76.4878 56.8933 79.2539 56.8933C79.2539 63.1937 79.2539 69.4509 79.2539 75.8175C76.5837 75.8175 73.899 75.8175 71.0923 75.8175C71.0923 69.5631 71.0923 63.2771 71.0923 56.8933Z" fill="#6B79FF"/>
<path d="M51.9653 32.4225C48.313 32.4225 44.7567 32.4225 40.9998 32.4225C40.9998 31.1739 40.9998 29.9483 40.9998 28.7228C40.9998 26.4241 40.9475 24.1226 41.0143 21.8269C41.1073 18.6105 43.3998 16.2342 46.4012 16.1364C49.1469 16.0443 51.7357 18.1962 51.913 21.1911C52.1309 24.8965 51.9653 28.6278 51.9653 32.4225Z" fill="#6B79FF"/>
</g>
<defs>
<clipPath id="clip0_223_54">
<rect width="93" height="92" fill="white"/>
</clipPath>
</defs>
</svg>
