<svg width="90" height="91" viewBox="0 0 90 91" fill="none" xmlns="http://www.w3.org/2000/svg">
<g clip-path="url(#clip0_223_48)">
<path d="M76.8301 12.7822C76.8957 12.2061 77.0154 11.6155 77.0182 11.0249C77.0382 7.9021 77.061 4.77927 77.0126 1.65932C76.9954 0.495457 77.386 -0.0288565 78.5804 0.0374029C79.7178 0.100781 80.8637 0.100781 82.0011 0.0374029C83.1699 -0.0288565 83.6003 0.43784 83.5889 1.62763C83.5433 5.99786 83.5718 10.3681 83.5718 14.7412C83.5718 15.0293 83.5975 15.3203 83.569 15.6055C83.1357 19.5666 84.065 23.1417 85.8808 26.7082C88.7343 32.3115 89.9829 38.4044 89.9829 44.7279C89.9829 57.8415 89.9544 70.9522 90.0029 84.0658C90.0171 87.9578 87.1066 91.0115 83.1556 90.9971C57.7338 90.9135 32.309 90.9308 6.88711 90.9798C3.01881 90.9913 -0.0313614 87.8454 -4.53139e-06 84.0456C0.114021 70.7909 0.0427549 57.5332 0.0456055 44.2756C0.0456055 39.2313 1.03192 34.3655 2.98745 29.7504C4.3358 26.5699 5.78107 23.3866 7.57981 20.451C10.4589 15.7466 14.1676 11.7135 18.7942 8.67993C21.3141 7.02632 23.894 5.41017 26.6077 4.11955C32.1066 1.50663 37.9361 0.190087 44.0422 0.0201178C48.0217 -0.092235 51.9527 0.293798 55.7412 1.33666C58.9937 2.2326 62.0895 3.722 65.2281 5.02414C69.4869 6.79009 72.9133 9.80345 76.374 12.7563C76.4282 12.8024 76.5507 12.7678 76.8301 12.7822ZM45.0085 45.4798C51.947 45.4798 58.8854 45.5028 65.821 45.4567C67.1066 45.4481 67.6653 45.8428 67.5599 47.1881C67.4772 48.2396 67.4857 49.3056 67.5599 50.3571C67.6454 51.5843 67.2092 52.1432 65.9436 52.0625C64.9031 51.9934 63.8483 52.1144 62.8107 52.0337C61.5165 51.9329 61.0661 52.4111 61.0718 53.7565C61.1174 63.3641 61.126 72.9688 61.0661 82.5764C61.0576 84.0946 61.6049 84.423 62.9846 84.4115C69.1619 84.351 75.3392 84.3856 81.5165 84.3827C83.4721 84.3827 83.4778 84.3769 83.4778 82.3747C83.4806 70.4624 83.4436 58.5502 83.4977 46.6379C83.5177 42.138 82.8079 37.8168 81.4994 33.507C80.0969 28.8977 77.7965 24.8731 74.9002 21.1223C72.0667 17.455 68.6089 14.4963 64.6722 12.1485C60.6984 9.77753 56.4082 8.27085 51.8558 7.32881C44.7719 5.86246 37.9618 6.84195 31.3056 9.23017C26.7275 10.8722 22.6881 13.563 19.0935 16.8759C15.5616 20.1313 12.7879 23.9541 10.6499 28.2956C8.51197 32.637 6.89851 37.2089 6.80444 41.9911C6.53363 55.6751 6.64481 69.3649 6.58209 83.0517C6.57639 84.0629 6.98688 84.3942 7.94469 84.3913C14.5011 84.3711 21.0604 84.3711 27.6169 84.3913C28.5747 84.3942 28.9823 84.0629 28.9795 83.0517C28.9595 73.156 28.9595 63.2632 28.9795 53.3675C28.9823 52.3391 28.5205 52.0193 27.5884 52.0423C26.354 52.074 25.1169 52.0222 23.8826 52.051C22.9333 52.0712 22.4715 51.6938 22.5142 50.6912C22.557 49.6858 22.52 48.6746 22.5228 47.6664C22.5257 45.4827 22.5257 45.4798 24.6294 45.4798C31.4196 45.4798 38.2155 45.4798 45.0085 45.4798ZM35.439 68.1174C35.439 73.0149 35.4646 77.9123 35.419 82.8097C35.4076 83.988 35.7953 84.4144 36.984 84.4057C42.3518 84.3596 47.7195 84.3596 53.0872 84.4057C54.2731 84.4144 54.6494 83.9966 54.6465 82.8126C54.6123 73.1128 54.6095 63.413 54.6494 53.7132C54.6551 52.4716 54.2674 52.0193 53.016 52.0308C47.6967 52.0798 42.3746 52.0798 37.0553 52.0308C35.8039 52.0193 35.4048 52.4687 35.419 53.7132C35.4675 58.5127 35.4361 63.3151 35.439 68.1174Z" fill="#6B79FF"/>
<path d="M48.2355 32.64C48.2526 30.7934 46.8501 29.3156 45.0799 29.3156C43.2697 29.3156 41.8187 30.7589 41.8301 32.5479C41.8415 34.3138 43.2184 35.76 44.9259 35.7917C46.7532 35.8263 48.2213 34.4319 48.2355 32.64Z" fill="#6B79FF"/>
</g>
<defs>
<clipPath id="clip0_223_48">
<rect width="90" height="91" fill="white"/>
</clipPath>
</defs>
</svg>
