<svg width="299" height="299" viewBox="0 0 299 299" fill="none" xmlns="http://www.w3.org/2000/svg">
<g clip-path="url(#clip0_223_72)">
<path d="M172.949 81.2267C173.529 75.4135 173.585 69.6376 174.772 64.114C176.884 54.3007 182.641 46.6929 190.595 40.618C192.212 39.3843 193.632 37.5525 194.445 35.6833C198.885 25.4213 203.128 15.0658 207.399 4.73837C208.595 1.85043 209.969 -1.08424 213.773 0.411132C217.867 2.01866 216.68 5.2524 215.455 8.26184C215.222 8.8413 214.941 9.39272 214.708 9.97218C211.586 17.5705 208.474 25.1689 205.137 33.3093C210.773 33.3093 216.007 32.7112 221.063 33.4122C242.073 36.3281 257.288 54.1044 256.84 75.077C256.765 78.6005 257.513 80.2547 261.13 80.5538C263.111 80.722 265.027 81.5632 266.98 82.0866C273.523 83.8249 273.532 83.8249 276.186 77.3855C280.747 66.3291 285.158 55.2072 289.981 44.263C290.813 42.375 293.177 40.2909 295.112 39.9638C298.206 39.4404 299.785 43.0386 298.243 46.8705C293.944 57.5344 289.504 68.1329 285.121 78.7594C283.644 82.3482 282.112 85.9185 280.691 89.5354C279.392 92.8532 277.205 94.0028 273.7 93.0215C267.588 91.3205 261.429 89.7877 255.017 88.1241C253.139 92.5822 251.354 96.8253 249.363 101.554C255.298 103.218 261.083 104.76 266.821 106.452C271.373 107.798 272.317 109.573 270.485 114.06C258.531 143.238 246.466 172.37 234.493 201.539C232.858 205.53 230.045 205.66 226.493 204.717C206.38 199.361 186.249 194.071 166.136 188.744C137.612 181.192 109.106 173.557 80.5446 166.136C76.208 165.014 74.0864 163.061 74.4229 158.425C74.7033 154.547 74.3481 150.64 74.507 146.752C74.9463 136.294 74.0397 126.49 68.7218 116.751C62.8524 105.994 64.3571 94.8066 72.8247 85.1053C73.8995 83.8717 74.3481 81.7595 74.4135 80.0211C74.6098 74.4228 74.4322 68.8058 74.507 63.1981C74.5818 57.4783 76.6286 56.011 82.1708 57.4783C111.742 65.3197 141.322 73.1517 170.903 80.9744C171.632 81.1706 172.407 81.1706 172.949 81.2267ZM261.064 114.003C256.774 112.826 252.728 111.929 248.821 110.583C245.839 109.555 244.325 110.312 242.381 112.891C234.998 122.695 227.325 132.284 219.502 141.733C216.399 145.49 213.923 145.303 210.567 141.733C197.296 127.602 185.604 112.377 177.632 94.5168C176.903 92.8813 174.837 91.2364 173.08 90.7504C150.463 84.5913 127.789 78.6379 105.134 72.647C98.0031 70.7591 90.8533 68.9273 83.5073 67.0113C83.5073 70.8619 83.5073 74.0396 83.5073 77.4789C84.8905 77.2173 85.9373 77.0116 86.984 76.806C109.181 72.5816 126.396 91.928 119.303 113.405C114.91 126.686 106.302 137.369 96.8161 147.36C94.4422 149.864 91.844 149.547 89.4794 147.145C87.6102 145.238 85.7971 143.285 83.3951 140.752C83.3951 147.061 83.3951 152.294 83.3951 157.724C104.246 163.201 124.976 168.613 145.687 174.099C171.8 181.015 197.894 187.987 223.988 194.969C226.25 195.576 227.671 195.464 228.577 192.8C230.082 188.398 232.073 184.164 233.848 179.865C242.858 158.098 251.858 136.303 261.064 114.003ZM215.007 133.658C227.353 120.172 238.493 106.349 244.727 89.526C247.064 83.2174 248.167 75.7499 247.372 69.1049C245.204 50.9921 227.25 38.7862 209.24 42.0386C191.165 45.3097 178.912 62.899 182.828 80.7033C187.473 101.863 201.165 117.62 215.007 133.658ZM93.33 138.303C101.199 129.023 108.489 120.125 111.508 108.667C113.639 100.592 110.546 92.6289 103.975 88.1896C97.489 83.8062 88.8345 83.8249 82.5072 88.2269C75.7874 92.9 72.8527 100.984 75.2079 109.218C78.395 120.424 85.47 129.256 93.33 138.303Z" fill="#04D9D9"/>
<path d="M214.624 225.745C170.65 214.119 127.294 202.67 83.2082 191.015C83.2082 193.492 83.2082 195.296 83.2082 197.1C83.2082 228.418 83.2082 259.728 83.1989 291.046C83.1989 292.598 83.6007 294.439 82.9091 295.635C82.1054 297.047 80.339 298.71 78.9464 298.748C77.5632 298.785 75.7968 297.168 74.8528 295.813C74.1705 294.832 74.479 293.103 74.479 291.71C74.4603 257.279 74.4603 222.848 74.4696 188.417C74.4696 181.538 76.3762 180.08 83.0119 181.837C128.069 193.744 173.127 205.661 218.184 217.567C225.755 219.568 226.428 220.792 223.512 227.886C214.53 249.727 205.52 271.55 196.52 293.383C196.109 294.392 195.931 295.813 195.174 296.299C193.529 297.355 190.894 299.028 189.912 298.43C188.454 297.533 187.006 294.57 187.454 293.028C188.856 288.13 191.118 283.476 193.071 278.738C199.885 262.214 206.707 245.709 213.511 229.185C213.932 228.194 214.175 227.157 214.624 225.745Z" fill="#04D9D9"/>
<path d="M51.0669 148.864C51.0669 146.762 51.0669 145.248 51.0669 143.724C51.0669 116.948 50.9454 90.171 51.1884 63.3945C51.2257 59.1794 49.6182 57.8242 45.9919 56.9083C32.2999 53.4316 18.6733 49.7025 4.99999 46.151C1.99055 45.3659 -0.626353 44.1135 0.158718 40.5994C1.01856 36.7768 4.06538 36.8423 7.26174 37.6928C23.1594 41.9452 39.0478 46.2257 54.9735 50.3193C58.4409 51.2072 59.8522 52.9923 59.8522 56.5251C59.7961 88.7504 59.8335 120.976 59.7961 153.201C59.7868 158.267 57.5904 159.958 52.6744 158.668C36.9075 154.538 21.1687 150.294 5.40187 146.145C2.3457 145.341 -0.719814 144.322 0.17741 140.453C1.17744 136.172 4.71961 136.92 7.80382 137.724C20.7295 141.079 33.6271 144.528 46.534 147.92C47.8331 148.266 49.1602 148.472 51.0669 148.864Z" fill="#04D9D9"/>
<path d="M161.594 54.2259C167.332 40.3283 172.893 26.8513 178.454 13.3742C179.763 10.2152 181.043 7.04691 182.389 3.90662C183.52 1.27102 185.183 -0.887921 188.426 0.3738C191.959 1.74768 191.576 4.69169 190.455 7.44879C186.305 17.6641 182.024 27.8326 177.8 38.0198C174.996 44.7677 172.211 51.5156 169.388 58.2541C166.94 64.1141 166.201 64.5347 159.827 62.8617C141.191 57.9831 122.583 53.0296 103.956 48.1136C95.8441 45.9734 87.7597 43.749 79.6193 41.7302C76.0584 40.8424 74.3855 39.0012 74.4415 35.1973C74.5817 25.3839 74.507 15.5705 74.4789 5.75715C74.4696 2.78509 75.3201 0.214917 78.6473 0.121456C82.2081 0.0186492 83.2643 2.51405 83.2362 5.78518C83.1614 13.8882 83.3016 21.9913 83.1615 30.085C83.1241 32.4683 83.7783 33.7954 86.1802 34.4216C111.116 40.9265 136.042 47.4968 161.594 54.2259Z" fill="#04D9D9"/>
<path d="M130.761 210.885C149.631 210.885 162.799 228.801 157.136 246.914C152.808 260.774 143.93 271.737 134.228 282.121C132.453 284.018 130.023 284.775 128.041 282.71C116.901 271.083 106.33 258.896 103.545 242.381C100.685 225.54 113.732 210.894 130.761 210.885ZM130.752 272.924C138.668 263.812 145.967 254.784 149.042 243.213C151.163 235.213 147.986 227.259 141.341 222.764C134.883 218.399 126.237 218.493 119.863 222.998C113.246 227.671 110.377 235.484 112.602 243.587C115.732 254.98 122.957 263.859 130.752 272.924Z" fill="#04D9D9"/>
<path d="M259.046 204.165C269.597 206.95 279.925 209.67 290.262 212.399C291.168 212.633 292.093 212.773 292.981 213.081C296.028 214.128 300.056 214.736 298.748 219.297C297.449 223.811 293.701 222.409 290.551 221.586C278.532 218.465 266.522 215.306 254.522 212.119C248.288 210.464 247.372 208.67 249.765 202.847C261.41 174.566 273.083 146.294 284.738 118.022C284.794 117.882 284.869 117.742 284.925 117.592C286.074 114.387 287.841 111.602 291.71 113.228C295.449 114.798 294.327 117.994 293.159 120.826C289.972 128.574 286.719 136.303 283.514 144.051C275.682 162.986 267.85 181.931 260.046 200.885C259.625 201.847 259.419 202.903 259.046 204.165Z" fill="#04D9D9"/>
<path d="M246.185 234.484C238.082 254.12 230.147 273.354 222.213 292.598C222.035 293.028 221.857 293.458 221.671 293.888C220.418 296.813 219.166 300.206 215.063 298.579C211.007 296.972 212.212 293.691 213.465 290.682C218.156 279.336 222.829 267.99 227.521 256.653C231.26 247.606 235.176 238.624 238.68 229.493C240.279 225.325 242.634 223.998 246.896 225.138C262.793 229.409 278.738 233.54 294.645 237.774C297.449 238.521 299.729 240.129 298.776 243.409C297.804 246.765 295.224 247.148 292.028 246.279C277.794 242.381 263.522 238.624 249.251 234.839C248.382 234.605 247.447 234.624 246.185 234.484Z" fill="#04D9D9"/>
<path d="M59.8148 196.109C59.8148 201.09 59.7494 206.072 59.8335 211.053C59.8896 214.268 59.5438 217.362 55.553 217.474C51.5155 217.586 51.0388 214.493 51.0482 211.278C51.0762 203.333 50.8613 195.389 51.1417 187.454C51.2725 183.725 50.3098 182.118 46.4125 181.174C32.5336 177.819 18.7855 173.921 4.96264 170.295C1.98124 169.51 -0.635666 168.239 0.158751 164.706C1.03728 160.837 4.19626 160.93 7.28981 161.743C22.7576 165.8 38.1973 169.977 53.6838 173.94C58.1325 175.08 60.3008 177.211 59.8802 182.099C59.4971 186.744 59.8148 191.436 59.8148 196.109Z" fill="#04D9D9"/>
<path d="M51.0669 24.954C51.0669 18.0005 51.0949 11.9442 51.0575 5.88797C51.0389 2.72899 51.9361 -6.43805e-05 55.5343 0.0933965C59.0578 0.196203 59.8803 2.88788 59.8429 6.07489C59.7494 13.7013 59.8616 21.3277 59.7961 28.9541C59.7494 34.216 57.5718 35.8609 52.3473 34.4963C36.73 30.4401 21.122 26.3092 5.51407 22.1969C5.06546 22.0754 4.65423 21.823 4.21497 21.6922C1.34572 20.8791 -0.719766 19.3276 0.242881 16.0285C1.21487 12.72 4.00001 12.5704 6.72906 13.2714C15.2994 15.4677 23.8231 17.8323 32.3747 20.094C38.3562 21.6829 44.3377 23.2063 51.0669 24.954Z" fill="#04D9D9"/>
<path d="M59.8149 264.578C59.8149 273.924 59.7682 283.261 59.8429 292.607C59.871 295.888 59.3102 298.86 55.3849 298.888C51.7118 298.907 51.0576 296.037 51.0576 292.953C51.0763 273.962 51.0763 254.961 51.0576 235.97C51.0576 232.83 51.9829 230.017 55.5064 230.091C58.9457 230.166 59.8616 232.895 59.8336 236.091C59.7588 245.587 59.8149 255.083 59.8149 264.578Z" fill="#04D9D9"/>
<path d="M192.127 74.4041C192.221 61.6374 202.801 51.1884 215.371 51.4501C227.932 51.7118 238.157 62.0486 238.194 74.5069C238.241 87.1615 227.755 97.5917 215.035 97.5544C202.165 97.5263 192.043 87.2924 192.127 74.4041ZM229.418 74.5163C229.381 66.7403 222.811 60.2541 215.016 60.3102C207.147 60.3569 200.81 66.7684 200.847 74.6471C200.885 82.5259 207.259 88.8345 215.156 88.8064C222.979 88.769 229.456 82.2829 229.418 74.5163Z" fill="#04D9D9"/>
<path d="M93.2925 115.032C87.1989 115.032 82.2361 110.069 82.2361 103.975C82.2361 97.8815 87.1989 92.9187 93.2925 92.9187C99.3862 92.9187 104.349 97.8815 104.349 103.975C104.349 110.069 99.3862 115.032 93.2925 115.032ZM93.2925 100.396C91.3205 100.396 89.713 102.003 89.713 103.975C89.713 105.947 91.3205 107.555 93.2925 107.555C95.2645 107.555 96.8721 105.947 96.8721 103.975C96.8721 102.003 95.2645 100.396 93.2925 100.396Z" fill="#04D9D9"/>
<path d="M130.77 248.456C124.677 248.456 119.714 243.493 119.714 237.4C119.714 231.306 124.677 226.343 130.77 226.343C136.864 226.343 141.827 231.306 141.827 237.4C141.827 243.503 136.873 248.456 130.77 248.456ZM130.77 233.82C128.798 233.82 127.191 235.428 127.191 237.4C127.191 239.372 128.798 240.979 130.77 240.979C132.742 240.979 134.35 239.372 134.35 237.4C134.35 235.428 132.752 233.82 130.77 233.82Z" fill="#04D9D9"/>
</g>
<defs>
<clipPath id="clip0_223_72">
<rect width="299" height="299" fill="white"/>
</clipPath>
</defs>
</svg>
