<svg width="271" height="68" viewBox="0 0 271 68" fill="none" xmlns="http://www.w3.org/2000/svg">
<path d="M54.0658 9.14288C54.0658 8.57243 54.0519 8.22459 54.0658 7.86284C54.1354 5.70626 55.7213 4.12012 57.8636 4.0923C59.9225 4.06447 61.9814 4.06447 64.0403 4.0923C66.1965 4.12012 67.7685 5.70626 67.8102 7.86284C67.838 9.32375 67.8102 10.7847 67.8241 12.2456C67.8241 13.5534 67.8937 14.8613 67.8102 16.1553C67.6989 18.1866 68.3527 19.7032 70.2169 20.7467C71.6219 21.5258 72.9017 22.5415 74.1816 23.5155C75.5171 24.5312 76.4352 25.839 76.5465 27.5782C76.7413 30.5696 74.6824 32.8653 71.6636 33.0601C71.0933 33.1018 70.5229 33.1018 69.9526 33.1575C69.3126 33.2131 68.9788 33.6166 68.8953 34.2288C68.8396 34.6184 68.8118 35.008 68.8118 35.3976C68.8118 42.7995 68.8118 50.2015 68.7979 57.6173C68.7979 58.8695 68.8118 60.1357 68.6032 61.3461C68.005 64.8802 65.6261 67.162 62.0648 67.635C56.8481 68.3168 51.7983 67.4959 47.0267 65.3671C44.2584 64.1288 41.643 62.5149 39.0138 60.9983C38.4434 60.6644 38.0957 60.6783 37.567 61.0261C33.0876 64.0314 28.3438 66.4106 22.9741 67.3707C20.2335 67.8576 17.4791 68.0246 14.7247 67.6628C10.6904 67.1202 8.21418 64.5045 7.85248 60.4557C7.76901 59.5513 7.78292 58.633 7.78292 57.7147C7.78292 50.3823 7.78292 43.0639 7.78292 35.7315C7.78292 33.2966 7.62988 33.1714 5.18149 33.0601C3.08088 32.9627 1.36979 32.1557 0.507292 30.1244C-0.410854 27.9539 -0.104793 25.9086 1.6063 24.3085C2.8444 23.1398 4.30509 22.1937 5.71013 21.1919C14.2795 15.07 22.8628 8.97592 31.4321 2.86791C32.0303 2.45051 32.6285 2.01919 33.2406 1.62962C36.6211 -0.526968 40.0293 -0.568708 43.368 1.65744C46.4564 3.73055 49.4751 5.92887 52.5217 8.07154C52.9669 8.39155 53.412 8.69765 54.0658 9.14288ZM41.4344 58.3547C41.7265 58.5634 41.9213 58.7304 42.1438 58.8556C43.4515 59.607 44.7453 60.4 46.0947 61.0818C50.7132 63.4332 55.5961 64.6715 60.8128 64.2541C63.9011 64.0036 65.2784 62.4453 65.2784 59.3565C65.2784 51.9267 65.2783 44.497 65.2644 37.0672C65.2644 36.5524 65.2227 36.0237 65.2088 35.5089C65.1114 32.3227 66.7251 29.5817 70.5229 29.5678C70.8568 29.5678 71.2046 29.5539 71.5384 29.5261C72.1505 29.4704 72.6514 29.2478 72.8878 28.6356C73.1243 27.9817 73.0409 27.3695 72.554 26.8964C72.0532 26.4095 71.4967 25.9642 70.9402 25.5468C69.5074 24.5033 68.0467 23.4876 66.5999 22.472C65.2923 21.5537 64.5967 20.3015 64.4854 18.7292C64.4019 17.6579 64.3324 16.6005 64.3185 15.5292C64.2906 13.15 64.3046 10.7847 64.3185 8.40547C64.3185 7.84893 64.1515 7.6124 63.5672 7.62631C61.8422 7.65414 60.1312 7.65414 58.4062 7.62631C57.8358 7.6124 57.6132 7.79327 57.6271 8.37764C57.641 9.33767 57.6549 10.3116 57.5297 11.2577C57.3072 12.8995 55.9439 13.7621 54.3858 13.2334C53.4816 12.9273 52.6191 12.4543 51.84 11.9117C48.8352 9.83855 45.8582 7.72371 42.895 5.59495C39.1529 2.90965 37.4975 2.92357 33.7414 5.60886C24.3374 12.3012 14.9055 18.9797 5.50147 25.6721C5.00066 26.0338 4.51376 26.4373 4.08251 26.8825C3.59561 27.3695 3.51215 27.9817 3.76255 28.6217C3.99905 29.2478 4.51377 29.4565 5.11195 29.4983C5.80752 29.5539 6.51699 29.5817 7.21255 29.6513C8.92364 29.8043 10.9547 31.307 11.1356 33.3245C11.2886 35.0775 11.3442 36.8446 11.3442 38.5976C11.372 45.3457 11.3581 52.1076 11.3581 58.8556C11.3581 59.4261 11.386 60.0104 11.4833 60.567C11.7894 62.5844 12.8327 63.7114 14.8359 64.0453C15.9906 64.2401 17.173 64.2958 18.3416 64.2819C24.4487 64.1845 29.7906 61.847 34.8404 58.6191C34.9517 58.5495 35.0213 58.4521 35.1743 58.313C34.8961 58.0904 34.6596 57.9095 34.4092 57.7286C32.8233 56.546 31.2096 55.3912 29.6376 54.1807C26.2571 51.5789 23.0019 48.8658 20.4283 45.4291C17.2148 41.1438 15.8515 36.3993 16.9922 31.0844C18.4112 24.3781 24.5321 20.218 31.0565 21.4563C33.6719 21.9572 35.8837 23.2094 37.8313 25.0042C38.2069 25.352 38.4852 25.4077 38.8886 25.0459C39.3477 24.6285 39.8485 24.2529 40.3493 23.8772C43.0203 21.8737 46.0112 20.8441 49.3638 21.3032C57.3072 22.4024 61.411 30.3052 59.7556 38.055C58.907 42.0343 56.709 45.2761 53.9406 48.1562C51.0471 51.1893 47.7223 53.7216 44.3697 56.1982C43.3959 56.9217 42.4499 57.6034 41.4344 58.3547ZM20.1918 34.5627C20.1779 36.6637 20.623 38.6394 21.5551 40.5316C22.6819 42.7995 24.2678 44.7335 26.0624 46.5005C29.6793 50.0762 33.8388 52.9702 37.9287 55.9199C38.1096 56.059 38.5826 56.0173 38.7773 55.8642C41.3231 53.9998 43.8688 52.1493 46.359 50.2015C49.016 48.1284 51.5062 45.8605 53.4955 43.1195C55.916 39.7803 57.0846 36.1071 56.1943 32.0027C54.7614 25.3799 47.6527 22.458 42.1717 26.966C41.3231 27.6617 40.4606 28.3295 39.5842 28.9974C38.6104 29.7487 37.8592 29.7209 36.9132 28.9556C35.9116 28.1208 34.9517 27.2304 33.8805 26.493C30.4166 24.072 26.0763 24.2946 23.1271 27.0356C20.9569 29.0391 20.164 31.6548 20.1918 34.5627Z" fill="#04D9D9"/>
<path d="M83.3242 61.7355V40.0768H80.0962V32.6837H83.3242V31.8507C83.3242 24.2493 88.0099 20.5007 96.8608 20.9693V28.5186C93.4246 28.3103 92.2271 29.3516 92.2271 32.4234V32.6837H97.017V40.0768H92.2271V61.7355H83.3242Z" fill="#04D9D9"/>
<path d="M114.008 39.4C111.093 39.4 108.854 41.1702 108.333 44.3981H119.475C119.475 41.2222 116.976 39.4 114.008 39.4ZM127.909 52.1036C126.504 57.7786 121.349 62.152 114.112 62.152C105.574 62.152 99.4303 56.4249 99.4303 47.2096C99.4303 37.9942 105.47 32.2672 114.112 32.2672C122.599 32.2672 128.586 37.8901 128.586 46.741C128.586 47.574 128.534 48.4591 128.43 49.3442H108.281C108.594 53.1449 110.936 54.9151 113.8 54.9151C116.299 54.9151 117.705 53.6655 118.434 52.1036H127.909Z" fill="#04D9D9"/>
<path d="M146.091 39.4C143.175 39.4 140.936 41.1702 140.416 44.3981H151.557C151.557 41.2222 149.058 39.4 146.091 39.4ZM159.992 52.1036C158.586 57.7786 153.432 62.152 146.195 62.152C137.656 62.152 131.513 56.4249 131.513 47.2096C131.513 37.9942 137.552 32.2672 146.195 32.2672C154.681 32.2672 160.669 37.8901 160.669 46.741C160.669 47.574 160.617 48.4591 160.513 49.3442H140.364C140.676 53.1449 143.019 54.9151 145.882 54.9151C148.382 54.9151 149.787 53.6655 150.516 52.1036H159.992Z" fill="#04D9D9"/>
<path d="M165.365 61.7355V23.208H174.268V61.7355H165.365Z" fill="#04D9D9"/>
<path d="M180.72 61.7355V23.208H189.623V61.7355H180.72Z" fill="#04D9D9"/>
<path d="M196.075 61.7355V32.6837H204.978V61.7355H196.075ZM200.553 29.664C197.377 29.664 195.242 27.5293 195.242 24.8741C195.242 22.1667 197.377 20.0321 200.553 20.0321C203.677 20.0321 205.811 22.1667 205.811 24.8741C205.811 27.5293 203.677 29.664 200.553 29.664Z" fill="#04D9D9"/>
<path d="M211.43 61.7355V23.208H220.333V44.5023L229.132 32.6837H240.117L228.038 47.2617L240.222 61.7355H229.184L220.333 49.5525V61.7355H211.43Z" fill="#04D9D9"/>
<path d="M256.422 39.4C253.506 39.4 251.268 41.1702 250.747 44.3981H261.889C261.889 41.2222 259.39 39.4 256.422 39.4ZM270.323 52.1036C268.917 57.7786 263.763 62.152 256.526 62.152C247.988 62.152 241.844 56.4249 241.844 47.2096C241.844 37.9942 247.883 32.2672 256.526 32.2672C265.013 32.2672 271 37.8901 271 46.741C271 47.574 270.948 48.4591 270.844 49.3442H250.695C251.007 53.1449 253.35 54.9151 256.214 54.9151C258.713 54.9151 260.119 53.6655 260.847 52.1036H270.323Z" fill="#04D9D9"/>
</svg>
